# xmcd CD database file
#
# Track frame offsets:
#	150
#	20952
#	37650
#	58720
#	78515
#	105962
#	120275
#	150670
#	162867
#	175342
#	187192
#	203050
#	225195
#	244570
#	275880
#	290087
#	316465
#	327805
#
# Disc length: 4712 seconds
#
# Revision: 0
# Processed by: cddbd v1.5.2PL0 Copyright (c) Steve Scherf et al.
# Submitted via: CDex 1.70beta2
#
DISCID=ef126612
DTITLE=Various Artist - With All My Love - The Wonderful World Of European Jazz
DYEAR=2004
DGENRE=Jazz
TTITLE0=Enrico Pieranunzi Quartet - Blue Rose
TTITLE1=Joe Kienemann Trio - Opa Pardon!
TTITLE2=Annette Neuffer Quintet - Strollin'
TTITLE3=Hans Peter Salentin Group - Delayed
TTITLE4=Guido Di Leone Trio - Palavras De Um Traidor
TTITLE5=Jutta Gruber and Martin Schrack Trio - Keep Hanging On
TTITLE6=Gianni Basso Quartet - My Old Friend
TTITLE7=Wagenleiter and Stabenow and Rüschenbaum - Yasper
TTITLE8=Sfogliare Albi - Tina
TTITLE9=Jo Mikovich Quartet - Jasmin Song
TTITLE10=Joy Garrison Quartet - What I Was Before
TTITLE11=Eos - Borboleta
TTITLE12=Stefano Sabatini - Goodbye Mr. P.
TTITLE13=Christian Von Der Goltz Trio - Romantic Waltz
TTITLE14=Tiziana Ghiglioni Quartet - Que Reste'T'Il De Nos Amours
TTITLE15=Stefania Tallini Trio - Ulisse E L'Arco
TTITLE16=Paola Arnesano and Dada Moroni - Stomping At The Savoy
TTITLE17=Enrico Pieranunzi Trio - Dee Song
EXTD=YEAR: 2004
EXTT0=
EXTT1=
EXTT2=
EXTT3=
EXTT4=
EXTT5=
EXTT6=
EXTT7=
EXTT8=
EXTT9=
EXTT10=
EXTT11=
EXTT12=
EXTT13=
EXTT14=
EXTT15=
EXTT16=
EXTT17=
PLAYORDER=
